<svg width="82" height="72" viewBox="0 0 82 72" fill="none" xmlns="http://www.w3.org/2000/svg">
<path d="M73.2142 39.5357C68.8693 39.5357 65.2613 42.7088 64.5606 46.8571H58.5714C53.7268 46.8571 49.7856 50.7961 49.7856 55.6377V71.75H52.7142V55.6377C52.7142 52.4112 55.3419 49.7857 58.5714 49.7857H64.5606C65.2609 53.934 68.8693 57.1071 73.2142 57.1071C78.0588 57.1071 81.9999 53.166 81.9999 48.3214C81.9999 43.4768 78.0588 39.5357 73.2142 39.5357ZM73.2142 54.1786C69.9847 54.1786 67.3571 51.5509 67.3571 48.3214C67.3571 45.0919 69.9847 42.4643 73.2142 42.4643C76.4437 42.4643 79.0714 45.0919 79.0714 48.3214C79.0714 51.5509 76.4437 54.1786 73.2142 54.1786Z" fill="#B7541C"/>
<path d="M33.6786 17.5714H27.8214C27.8214 12.7268 23.8803 8.78572 19.0357 8.78572C14.1911 8.78572 10.25 12.7268 10.25 17.5714C10.25 22.416 14.1911 26.3571 19.0357 26.3571C22.8524 26.3571 26.0991 23.907 27.3089 20.5H33.6786C36.9081 20.5 39.5357 23.1313 39.5357 26.3659V71.75H42.4643V26.3659C42.4643 21.5166 38.5232 17.5714 33.6786 17.5714ZM19.0357 23.4286C15.8062 23.4286 13.1786 20.8009 13.1786 17.5714C13.1786 14.342 15.8062 11.7143 19.0357 11.7143C22.2652 11.7143 24.8929 14.342 24.8929 17.5714C24.8929 20.8009 22.2652 23.4286 19.0357 23.4286Z" fill="#B7541C"/>
<path d="M23.4286 39.5357H17.4393C16.7386 35.3874 13.1306 32.2143 8.78571 32.2143C3.94112 32.2143 0 36.1554 0 41C0 45.8446 3.94112 49.7857 8.78571 49.7857C13.1306 49.7857 16.7386 46.6126 17.4393 42.4643H23.4286C26.6581 42.4643 29.2857 45.0941 29.2857 48.3266V71.75H32.2143V48.3266C32.2143 43.4798 28.2732 39.5357 23.4286 39.5357ZM8.78571 46.8571C5.55623 46.8571 2.92857 44.2295 2.92857 41C2.92857 37.7705 5.55623 35.1429 8.78571 35.1429C12.0152 35.1429 14.6429 37.7705 14.6429 41C14.6429 44.2295 12.0152 46.8571 8.78571 46.8571Z" fill="#B7541C"/>
<path d="M59.8386 29.2857H64.5609C65.2612 33.434 68.8696 36.6071 73.2145 36.6071C78.0591 36.6071 82.0002 32.666 82.0002 27.8214C82.0002 22.9768 78.0591 19.0357 73.2145 19.0357C68.8696 19.0357 65.2616 22.2088 64.5609 26.3571H59.8386C57.5334 26.3571 55.6581 24.481 55.6581 22.1744V0H52.7295V22.1744C52.7295 26.0954 55.9183 29.2857 59.8386 29.2857ZM73.2145 21.9643C76.444 21.9643 79.0716 24.5919 79.0716 27.8214C79.0716 31.0509 76.444 33.6786 73.2145 33.6786C69.985 33.6786 67.3573 31.0509 67.3573 27.8214C67.3573 24.5919 69.985 21.9643 73.2145 21.9643Z" fill="#B7541C"/>
</svg>
