<svg width="76" height="76" viewBox="0 0 76 76" fill="none" xmlns="http://www.w3.org/2000/svg">
<path d="M35.1583 6.16823C36.0794 4.37817 36.54 3.4831 37.1551 3.1909C37.6908 2.93637 38.3088 2.93637 38.8448 3.1909C39.46 3.4831 39.9206 4.37817 40.8417 6.16823L46.4914 17.1467C46.8893 17.9196 47.0881 18.306 47.3844 18.5633C47.6458 18.7905 47.9598 18.9453 48.2959 19.013C48.677 19.0897 49.0962 19.008 49.9342 18.8446L61.8371 16.5238C63.7778 16.1454 64.7483 15.9562 65.355 16.2666C65.8835 16.5369 66.2685 17.0318 66.4083 17.6195C66.5689 18.2943 66.173 19.2212 65.3807 21.0749L60.5229 32.4441C60.1808 33.2444 60.0101 33.6445 59.9981 34.0422C59.9876 34.393 60.0651 34.741 60.2233 35.0527C60.4024 35.4056 60.7261 35.6902 61.3733 36.2593L70.5662 44.3439C72.0652 45.662 72.8145 46.3213 72.9558 47.0003C73.0791 47.5921 72.9414 48.209 72.58 48.6873C72.1648 49.2367 71.2103 49.4975 69.3014 50.019L57.594 53.2173C56.7697 53.4427 56.3577 53.5554 56.0469 53.7939C55.7726 54.0041 55.5554 54.2833 55.4161 54.6041C55.2583 54.9677 55.2426 55.404 55.2117 56.2771L54.772 68.6792C54.7005 70.7013 54.6648 71.7122 54.2343 72.2489C53.8593 72.7165 53.3028 72.9912 52.7121 72.9999C52.0339 73.0098 51.24 72.4081 49.6515 71.2047L39.9105 63.8242C39.2247 63.3048 38.8818 63.0449 38.5059 62.9445C38.1743 62.8561 37.8257 62.8561 37.494 62.9445C37.1182 63.0449 36.7753 63.3048 36.0894 63.8242L26.3484 71.2047C24.7601 72.4081 23.9659 73.0098 23.2879 72.9999C22.6974 72.9912 22.1406 72.7165 21.7657 72.2489C21.3352 71.7122 21.2994 70.7013 21.2277 68.6792L20.7882 56.2771C20.7573 55.404 20.7418 54.9677 20.5839 54.6041C20.4447 54.2833 20.2275 54.0041 19.953 53.7939C19.6422 53.5554 19.2301 53.4427 18.4059 53.2173L6.69846 50.019C4.78953 49.4975 3.83507 49.2367 3.42003 48.6873C3.05853 48.209 2.92104 47.5921 3.04407 47.0003C3.18533 46.3213 3.93481 45.662 5.43377 44.3439L14.6268 36.2593C15.274 35.6902 15.5975 35.4056 15.7766 35.0527C15.9347 34.741 16.0122 34.393 16.0018 34.0422C15.99 33.6445 15.819 33.2444 15.477 32.4441L10.6192 21.0749C9.82712 19.2212 9.43108 18.2943 9.59157 17.6195C9.73131 17.0318 10.1166 16.5369 10.645 16.2666C11.2515 15.9562 12.222 16.1454 14.1628 16.5238L26.0659 18.8446C26.9038 19.008 27.3228 19.0897 27.7038 19.013C28.0403 18.9453 28.3542 18.7905 28.6156 18.5633C28.9118 18.306 29.1106 17.9196 29.5083 17.1467L35.1583 6.16823Z" stroke="#B7541C" stroke-width="6" stroke-linecap="round" stroke-linejoin="round"/>
</svg>
