<svg width="354" height="97" viewBox="0 0 354 97" fill="none" xmlns="http://www.w3.org/2000/svg">
<mask id="path-1-outside-1_24_78" maskUnits="userSpaceOnUse" x="0.0795898" y="-0.147552" width="354" height="97" fill="black">
<rect fill="white" x="0.0795898" y="-0.147552" width="354" height="97"/>
<path d="M3.07959 73.1955V3.96753H32.3931C37.1701 3.96753 41.2647 4.77286 44.6769 6.38354C48.089 7.99421 50.6947 10.3173 52.4938 13.3528C54.2929 16.3263 55.1925 19.9504 55.1925 24.2248C55.1925 27.2603 54.355 30.1719 52.6799 32.9596C51.0049 35.6854 48.2441 37.9775 44.3977 39.836V32.7738C48.058 34.1986 50.8808 35.9022 52.866 37.8846C54.8513 39.867 56.2161 42.0352 56.9606 44.3892C57.7051 46.6813 58.0773 49.0974 58.0773 51.6373C58.0773 58.4517 55.8129 63.7483 51.284 67.5272C46.7552 71.3061 40.4582 73.1955 32.3931 73.1955H3.07959ZM17.5037 60.6508H34.0682C36.984 60.6508 39.3105 59.8145 41.0476 58.1419C42.7847 56.4693 43.6532 54.3011 43.6532 51.6373C43.6532 48.9115 42.7847 46.7123 41.0476 45.0397C39.3105 43.3671 36.984 42.5308 34.0682 42.5308H17.5037V60.6508ZM17.5037 29.9861H33.4168C35.6502 29.9861 37.4183 29.3666 38.7211 28.1276C40.086 26.8267 40.7684 25.1231 40.7684 23.0168C40.7684 20.9106 40.086 19.238 38.7211 17.999C37.4183 16.698 35.6502 16.0476 33.4168 16.0476H17.5037V29.9861Z"/>
<path d="M66.3065 73.1955V22.4593H80.2653V73.1955H66.3065ZM66.3065 17.906V3.96753H80.2653V17.906H66.3065Z"/>
<path d="M114.954 73.753C108.813 73.753 104.036 72.1114 100.623 68.8281C97.2732 65.4829 95.5982 60.8367 95.5982 54.8896V34.5393H87.0368V22.4593H87.5021C90.1077 22.4593 92.093 21.8088 93.4578 20.5079C94.8847 19.207 95.5982 17.2556 95.5982 14.6537V10.9368H109.557V22.4593H121.469V34.5393H109.557V53.9604C109.557 55.6949 109.867 57.1507 110.488 58.3278C111.108 59.4428 112.07 60.2791 113.372 60.8367C114.675 61.3942 116.288 61.673 118.211 61.673C118.646 61.673 119.142 61.642 119.7 61.5801C120.259 61.5181 120.848 61.4562 121.469 61.3942V73.1955C120.538 73.3194 119.483 73.4433 118.305 73.5672C117.126 73.6911 116.009 73.753 114.954 73.753Z"/>
<path d="M155.891 74.3106C151.548 74.3106 147.454 73.5362 143.607 71.9875C139.823 70.3768 136.535 68.1157 133.743 65.2041C131.013 62.2925 128.966 58.8543 127.601 54.8896L139.419 49.5929C141.157 53.3718 143.545 56.3454 146.585 58.5136C149.687 60.6818 153.099 61.7659 156.821 61.7659C158.807 61.7659 160.513 61.4562 161.94 60.8367C163.367 60.2172 164.483 59.3809 165.29 58.3278C166.096 57.2127 166.5 55.9117 166.5 54.425C166.5 52.8143 166.003 51.4514 165.011 50.3363C164.018 49.1593 162.467 48.2301 160.358 47.5486L146.771 43.0883C141.25 41.2918 137.093 38.7519 134.301 35.4686C131.509 32.1233 130.114 28.1276 130.114 23.4815C130.114 19.3928 131.106 15.7998 133.091 12.7023C135.139 9.60488 137.962 7.18887 141.56 5.4543C145.22 3.71973 149.408 2.85245 154.123 2.85245C158.279 2.85245 162.126 3.56486 165.662 4.98969C169.198 6.41451 172.238 8.42786 174.782 11.0297C177.387 13.6316 179.342 16.76 180.644 20.415L168.919 25.7116C167.616 22.4903 165.662 19.9813 163.056 18.1848C160.451 16.3263 157.473 15.3971 154.123 15.3971C152.2 15.3971 150.493 15.7069 149.004 16.3263C147.516 16.9458 146.368 17.8441 145.561 19.0211C144.755 20.1362 144.352 21.4371 144.352 22.9239C144.352 24.5346 144.879 25.9594 145.934 27.1984C146.988 28.3754 148.57 29.3047 150.68 29.9861L163.987 34.2606C169.57 36.0571 173.727 38.566 176.457 41.7874C179.249 45.0087 180.644 48.9425 180.644 53.5887C180.644 57.6153 179.59 61.2084 177.48 64.3678C175.371 67.4652 172.455 69.9122 168.733 71.7087C165.073 73.4433 160.792 74.3106 155.891 74.3106Z"/>
<path d="M197.81 93.8245C196.321 93.8245 194.863 93.7006 193.436 93.4528C192.072 93.205 190.862 92.8024 189.807 92.2448V80.8152C190.676 81.063 191.699 81.2798 192.878 81.4657C194.057 81.6515 195.143 81.7445 196.135 81.7445C198.865 81.7445 200.819 81.094 201.998 79.7931C203.177 78.4921 204.138 77.0054 204.883 75.3327L208.326 67.4342L208.14 79.0497L185.806 22.4593H200.788L215.584 62.6952H210.001L224.797 22.4593H239.78L218.004 77.9346C216.639 81.4657 214.964 84.4083 212.979 86.7623C210.994 89.1164 208.729 90.8819 206.186 92.059C203.704 93.236 200.912 93.8245 197.81 93.8245Z"/>
<path d="M245.881 73.1955V22.4593H258.909V32.495L258.165 30.2649C259.343 27.2294 261.236 24.9992 263.841 23.5744C266.509 22.0876 269.611 21.3442 273.147 21.3442C276.993 21.3442 280.344 22.1496 283.197 23.7602C286.113 25.3709 288.378 27.632 289.991 30.5436C291.604 33.3933 292.41 36.7385 292.41 40.5794V73.1955H278.451V43.5529C278.451 41.5706 278.048 39.867 277.242 38.4421C276.497 37.0173 275.412 35.9022 273.985 35.0969C272.62 34.2916 271.007 33.8889 269.146 33.8889C267.346 33.8889 265.733 34.2916 264.306 35.0969C262.88 35.9022 261.763 37.0173 260.956 38.4421C260.212 39.867 259.84 41.5706 259.84 43.5529V73.1955H245.881Z"/>
<path d="M326.529 74.3106C321.441 74.3106 316.851 73.1645 312.756 70.8724C308.723 68.5184 305.497 65.328 303.078 61.3013C300.72 57.2746 299.542 52.7523 299.542 47.7345C299.542 42.7166 300.72 38.2253 303.078 34.2606C305.435 30.2339 308.661 27.0745 312.756 24.7824C316.851 22.4903 321.441 21.3442 326.529 21.3442C330.313 21.3442 333.818 21.9947 337.044 23.2956C340.27 24.5965 343.031 26.424 345.327 28.7781C347.622 31.0702 349.266 33.796 350.259 36.9554L338.161 42.1591C337.292 39.6192 335.803 37.6058 333.694 36.119C331.647 34.6323 329.258 33.8889 326.529 33.8889C324.109 33.8889 321.938 34.4774 320.015 35.6544C318.153 36.8315 316.664 38.4731 315.548 40.5794C314.493 42.6856 313.966 45.1016 313.966 47.8274C313.966 50.5532 314.493 52.9692 315.548 55.0754C316.664 57.1817 318.153 58.8233 320.015 60.0004C321.938 61.1774 324.109 61.7659 326.529 61.7659C329.32 61.7659 331.74 61.0225 333.787 59.5358C335.835 58.049 337.292 56.0356 338.161 53.4957L350.259 58.7924C349.328 61.7659 347.715 64.4297 345.42 66.7838C343.124 69.1378 340.363 70.9963 337.137 72.3592C333.911 73.6601 330.375 74.3106 326.529 74.3106Z"/>
</mask>
<path d="M3.07959 73.1955V3.96753H32.3931C37.1701 3.96753 41.2647 4.77286 44.6769 6.38354C48.089 7.99421 50.6947 10.3173 52.4938 13.3528C54.2929 16.3263 55.1925 19.9504 55.1925 24.2248C55.1925 27.2603 54.355 30.1719 52.6799 32.9596C51.0049 35.6854 48.2441 37.9775 44.3977 39.836V32.7738C48.058 34.1986 50.8808 35.9022 52.866 37.8846C54.8513 39.867 56.2161 42.0352 56.9606 44.3892C57.7051 46.6813 58.0773 49.0974 58.0773 51.6373C58.0773 58.4517 55.8129 63.7483 51.284 67.5272C46.7552 71.3061 40.4582 73.1955 32.3931 73.1955H3.07959ZM17.5037 60.6508H34.0682C36.984 60.6508 39.3105 59.8145 41.0476 58.1419C42.7847 56.4693 43.6532 54.3011 43.6532 51.6373C43.6532 48.9115 42.7847 46.7123 41.0476 45.0397C39.3105 43.3671 36.984 42.5308 34.0682 42.5308H17.5037V60.6508ZM17.5037 29.9861H33.4168C35.6502 29.9861 37.4183 29.3666 38.7211 28.1276C40.086 26.8267 40.7684 25.1231 40.7684 23.0168C40.7684 20.9106 40.086 19.238 38.7211 17.999C37.4183 16.698 35.6502 16.0476 33.4168 16.0476H17.5037V29.9861Z" stroke="url(#paint0_linear_24_78)" stroke-width="5.56972" mask="url(#path-1-outside-1_24_78)"/>
<path d="M66.3065 73.1955V22.4593H80.2653V73.1955H66.3065ZM66.3065 17.906V3.96753H80.2653V17.906H66.3065Z" stroke="url(#paint1_linear_24_78)" stroke-width="5.56972" mask="url(#path-1-outside-1_24_78)"/>
<path d="M114.954 73.753C108.813 73.753 104.036 72.1114 100.623 68.8281C97.2732 65.4829 95.5982 60.8367 95.5982 54.8896V34.5393H87.0368V22.4593H87.5021C90.1077 22.4593 92.093 21.8088 93.4578 20.5079C94.8847 19.207 95.5982 17.2556 95.5982 14.6537V10.9368H109.557V22.4593H121.469V34.5393H109.557V53.9604C109.557 55.6949 109.867 57.1507 110.488 58.3278C111.108 59.4428 112.07 60.2791 113.372 60.8367C114.675 61.3942 116.288 61.673 118.211 61.673C118.646 61.673 119.142 61.642 119.7 61.5801C120.259 61.5181 120.848 61.4562 121.469 61.3942V73.1955C120.538 73.3194 119.483 73.4433 118.305 73.5672C117.126 73.6911 116.009 73.753 114.954 73.753Z" stroke="url(#paint2_linear_24_78)" stroke-width="5.56972" mask="url(#path-1-outside-1_24_78)"/>
<path d="M155.891 74.3106C151.548 74.3106 147.454 73.5362 143.607 71.9875C139.823 70.3768 136.535 68.1157 133.743 65.2041C131.013 62.2925 128.966 58.8543 127.601 54.8896L139.419 49.5929C141.157 53.3718 143.545 56.3454 146.585 58.5136C149.687 60.6818 153.099 61.7659 156.821 61.7659C158.807 61.7659 160.513 61.4562 161.94 60.8367C163.367 60.2172 164.483 59.3809 165.29 58.3278C166.096 57.2127 166.5 55.9117 166.5 54.425C166.5 52.8143 166.003 51.4514 165.011 50.3363C164.018 49.1593 162.467 48.2301 160.358 47.5486L146.771 43.0883C141.25 41.2918 137.093 38.7519 134.301 35.4686C131.509 32.1233 130.114 28.1276 130.114 23.4815C130.114 19.3928 131.106 15.7998 133.091 12.7023C135.139 9.60488 137.962 7.18887 141.56 5.4543C145.22 3.71973 149.408 2.85245 154.123 2.85245C158.279 2.85245 162.126 3.56486 165.662 4.98969C169.198 6.41451 172.238 8.42786 174.782 11.0297C177.387 13.6316 179.342 16.76 180.644 20.415L168.919 25.7116C167.616 22.4903 165.662 19.9813 163.056 18.1848C160.451 16.3263 157.473 15.3971 154.123 15.3971C152.2 15.3971 150.493 15.7069 149.004 16.3263C147.516 16.9458 146.368 17.8441 145.561 19.0211C144.755 20.1362 144.352 21.4371 144.352 22.9239C144.352 24.5346 144.879 25.9594 145.934 27.1984C146.988 28.3754 148.57 29.3047 150.68 29.9861L163.987 34.2606C169.57 36.0571 173.727 38.566 176.457 41.7874C179.249 45.0087 180.644 48.9425 180.644 53.5887C180.644 57.6153 179.59 61.2084 177.48 64.3678C175.371 67.4652 172.455 69.9122 168.733 71.7087C165.073 73.4433 160.792 74.3106 155.891 74.3106Z" stroke="url(#paint3_linear_24_78)" stroke-width="5.56972" mask="url(#path-1-outside-1_24_78)"/>
<path d="M197.81 93.8245C196.321 93.8245 194.863 93.7006 193.436 93.4528C192.072 93.205 190.862 92.8024 189.807 92.2448V80.8152C190.676 81.063 191.699 81.2798 192.878 81.4657C194.057 81.6515 195.143 81.7445 196.135 81.7445C198.865 81.7445 200.819 81.094 201.998 79.7931C203.177 78.4921 204.138 77.0054 204.883 75.3327L208.326 67.4342L208.14 79.0497L185.806 22.4593H200.788L215.584 62.6952H210.001L224.797 22.4593H239.78L218.004 77.9346C216.639 81.4657 214.964 84.4083 212.979 86.7623C210.994 89.1164 208.729 90.8819 206.186 92.059C203.704 93.236 200.912 93.8245 197.81 93.8245Z" stroke="url(#paint4_linear_24_78)" stroke-width="5.56972" mask="url(#path-1-outside-1_24_78)"/>
<path d="M245.881 73.1955V22.4593H258.909V32.495L258.165 30.2649C259.343 27.2294 261.236 24.9992 263.841 23.5744C266.509 22.0876 269.611 21.3442 273.147 21.3442C276.993 21.3442 280.344 22.1496 283.197 23.7602C286.113 25.3709 288.378 27.632 289.991 30.5436C291.604 33.3933 292.41 36.7385 292.41 40.5794V73.1955H278.451V43.5529C278.451 41.5706 278.048 39.867 277.242 38.4421C276.497 37.0173 275.412 35.9022 273.985 35.0969C272.62 34.2916 271.007 33.8889 269.146 33.8889C267.346 33.8889 265.733 34.2916 264.306 35.0969C262.88 35.9022 261.763 37.0173 260.956 38.4421C260.212 39.867 259.84 41.5706 259.84 43.5529V73.1955H245.881Z" stroke="url(#paint5_linear_24_78)" stroke-width="5.56972" mask="url(#path-1-outside-1_24_78)"/>
<path d="M326.529 74.3106C321.441 74.3106 316.851 73.1645 312.756 70.8724C308.723 68.5184 305.497 65.328 303.078 61.3013C300.72 57.2746 299.542 52.7523 299.542 47.7345C299.542 42.7166 300.72 38.2253 303.078 34.2606C305.435 30.2339 308.661 27.0745 312.756 24.7824C316.851 22.4903 321.441 21.3442 326.529 21.3442C330.313 21.3442 333.818 21.9947 337.044 23.2956C340.27 24.5965 343.031 26.424 345.327 28.7781C347.622 31.0702 349.266 33.796 350.259 36.9554L338.161 42.1591C337.292 39.6192 335.803 37.6058 333.694 36.119C331.647 34.6323 329.258 33.8889 326.529 33.8889C324.109 33.8889 321.938 34.4774 320.015 35.6544C318.153 36.8315 316.664 38.4731 315.548 40.5794C314.493 42.6856 313.966 45.1016 313.966 47.8274C313.966 50.5532 314.493 52.9692 315.548 55.0754C316.664 57.1817 318.153 58.8233 320.015 60.0004C321.938 61.1774 324.109 61.7659 326.529 61.7659C329.32 61.7659 331.74 61.0225 333.787 59.5358C335.835 58.049 337.292 56.0356 338.161 53.4957L350.259 58.7924C349.328 61.7659 347.715 64.4297 345.42 66.7838C343.124 69.1378 340.363 70.9963 337.137 72.3592C333.911 73.6601 330.375 74.3106 326.529 74.3106Z" stroke="url(#paint6_linear_24_78)" stroke-width="5.56972" mask="url(#path-1-outside-1_24_78)"/>
<defs>
<linearGradient id="paint0_linear_24_78" x1="176.669" y1="2.85245" x2="176.669" y2="93.8245" gradientUnits="userSpaceOnUse">
<stop stop-color="#00D0DD"/>
<stop offset="1" stop-color="#1681B4"/>
</linearGradient>
<linearGradient id="paint1_linear_24_78" x1="176.669" y1="2.85245" x2="176.669" y2="93.8245" gradientUnits="userSpaceOnUse">
<stop stop-color="#00D0DD"/>
<stop offset="1" stop-color="#1681B4"/>
</linearGradient>
<linearGradient id="paint2_linear_24_78" x1="176.669" y1="2.85245" x2="176.669" y2="93.8245" gradientUnits="userSpaceOnUse">
<stop stop-color="#00D0DD"/>
<stop offset="1" stop-color="#1681B4"/>
</linearGradient>
<linearGradient id="paint3_linear_24_78" x1="176.669" y1="2.85245" x2="176.669" y2="93.8245" gradientUnits="userSpaceOnUse">
<stop stop-color="#00D0DD"/>
<stop offset="1" stop-color="#1681B4"/>
</linearGradient>
<linearGradient id="paint4_linear_24_78" x1="176.669" y1="2.85245" x2="176.669" y2="93.8245" gradientUnits="userSpaceOnUse">
<stop stop-color="#00D0DD"/>
<stop offset="1" stop-color="#1681B4"/>
</linearGradient>
<linearGradient id="paint5_linear_24_78" x1="176.669" y1="2.85245" x2="176.669" y2="93.8245" gradientUnits="userSpaceOnUse">
<stop stop-color="#00D0DD"/>
<stop offset="1" stop-color="#1681B4"/>
</linearGradient>
<linearGradient id="paint6_linear_24_78" x1="176.669" y1="2.85245" x2="176.669" y2="93.8245" gradientUnits="userSpaceOnUse">
<stop stop-color="#00D0DD"/>
<stop offset="1" stop-color="#1681B4"/>
</linearGradient>
</defs>
</svg>
