<svg width="442" height="100" viewBox="0 0 442 100" fill="none" xmlns="http://www.w3.org/2000/svg">
<path d="M60.6862 77.3238V1.22574H92.8818C98.1285 1.22574 102.626 2.11099 106.373 3.88151C110.121 5.65203 112.983 8.20565 114.959 11.5424C116.935 14.811 117.923 18.7947 117.923 23.4934C117.923 26.8301 117.003 30.0306 115.163 33.095C113.324 36.0912 110.291 38.6108 106.067 40.6537V32.8907C110.087 34.4569 113.187 36.3296 115.368 38.5087C117.548 40.6878 119.047 43.0712 119.865 45.6588C120.683 48.1784 121.091 50.8342 121.091 53.6261C121.091 61.1168 118.604 66.9391 113.63 71.093C108.656 75.2468 101.74 77.3238 92.8818 77.3238H60.6862ZM76.5285 63.5342H94.7216C97.9241 63.5342 100.479 62.6149 102.387 60.7763C104.295 58.9377 105.249 56.5543 105.249 53.6261C105.249 50.6299 104.295 48.2125 102.387 46.3739C100.479 44.5352 97.9241 43.6159 94.7216 43.6159H76.5285V63.5342ZM76.5285 29.8264H94.0061C96.4591 29.8264 98.4011 29.1454 99.832 27.7835C101.331 26.3534 102.081 24.4808 102.081 22.1655C102.081 19.8502 101.331 18.0116 99.832 16.6496C98.4011 15.2196 96.4591 14.5046 94.0061 14.5046H76.5285V29.8264Z" fill="#00D0DD"/>
<path d="M130.13 77.3238V21.5526H145.461V77.3238H130.13ZM130.13 16.5475V1.22574H145.461V16.5475H130.13Z" fill="#00D0DD"/>
<path d="M183.561 77.9367C176.815 77.9367 171.568 76.1321 167.821 72.523C164.141 68.8458 162.301 63.7385 162.301 57.2012V34.8315H152.898V21.5526H153.409C156.271 21.5526 158.451 20.8376 159.95 19.4076C161.518 17.9775 162.301 15.8325 162.301 12.9724V8.88662H177.633V21.5526H190.715V34.8315H177.633V56.1798C177.633 58.0865 177.973 59.6868 178.655 60.9806C179.336 62.2063 180.392 63.1256 181.823 63.7385C183.254 64.3514 185.026 64.6578 187.138 64.6578C187.615 64.6578 188.16 64.6238 188.773 64.5557C189.386 64.4876 190.034 64.4195 190.715 64.3514V77.3238C189.693 77.46 188.535 77.5962 187.24 77.7324C185.945 77.8686 184.719 77.9367 183.561 77.9367Z" fill="#00D0DD"/>
<path d="M228.522 78.5495C223.752 78.5495 219.255 77.6983 215.03 75.9959C210.874 74.2254 207.263 71.7399 204.196 68.5393C201.198 65.3388 198.95 61.5594 197.451 57.2012L210.431 51.379C212.339 55.5329 214.962 58.8015 218.301 61.1849C221.708 63.5683 225.456 64.76 229.544 64.76C231.724 64.76 233.598 64.4195 235.165 63.7385C236.733 63.0575 237.959 62.1382 238.845 60.9806C239.731 59.7548 240.174 58.3248 240.174 56.6905C240.174 54.92 239.629 53.4219 238.538 52.1961C237.448 50.9023 235.745 49.8808 233.428 49.1318L218.505 44.2288C212.441 42.254 207.876 39.462 204.81 35.8529C201.743 32.1757 200.21 27.7835 200.21 22.6762C200.21 18.1818 201.3 14.2322 203.481 10.8274C205.729 7.42254 208.83 4.76677 212.782 2.86006C216.802 0.953354 221.401 0 226.58 0C231.145 0 235.37 0.783112 239.254 2.34934C243.138 3.91556 246.477 6.1287 249.27 8.98876C252.132 11.8488 254.278 15.2877 255.709 19.3054L242.831 25.1277C241.4 21.5867 239.254 18.8287 236.392 16.8539C233.53 14.811 230.259 13.7896 226.58 13.7896C224.468 13.7896 222.594 14.1301 220.958 14.811C219.323 15.492 218.063 16.4794 217.177 17.7732C216.291 18.999 215.848 20.429 215.848 22.0633C215.848 23.8338 216.427 25.4001 217.586 26.762C218.744 28.0558 220.482 29.0773 222.798 29.8264L237.414 34.525C243.547 36.4998 248.112 39.2577 251.11 42.7988C254.176 46.3398 255.709 50.6639 255.709 55.7712C255.709 60.1975 254.551 64.1471 252.234 67.62C249.918 71.0249 246.715 73.7147 242.627 75.6895C238.606 77.5962 233.905 78.5495 228.522 78.5495Z" fill="#00D0DD"/>
<path d="M274.563 100C272.927 100 271.326 99.8638 269.759 99.5914C268.26 99.319 266.931 98.8764 265.773 98.2635V85.6997C266.727 85.9721 267.851 86.2104 269.146 86.4147C270.44 86.619 271.633 86.7211 272.723 86.7211C275.721 86.7211 277.868 86.0061 279.162 84.5761C280.457 83.1461 281.513 81.5117 282.331 79.6731L286.112 70.9908L285.908 83.7589L261.378 21.5526H277.833L294.085 65.7814H287.952L304.203 21.5526H320.659L296.742 82.5332C295.243 86.4147 293.403 89.6493 291.223 92.237C289.042 94.8247 286.555 96.7654 283.762 98.0592C281.036 99.3531 277.97 100 274.563 100Z" fill="#00D0DD"/>
<path d="M327.36 77.3238V21.5526H341.669V32.5843L340.851 30.1328C342.146 26.796 344.224 24.3446 347.086 22.7783C350.016 21.144 353.423 20.3269 357.307 20.3269C361.531 20.3269 365.211 21.2121 368.345 22.9826C371.548 24.7531 374.035 27.2387 375.807 30.4392C377.578 33.5717 378.464 37.2489 378.464 41.4709V77.3238H363.133V44.7395C363.133 42.5604 362.69 40.6878 361.804 39.1216C360.986 37.5553 359.794 36.3296 358.227 35.4443C356.728 34.5591 354.956 34.1164 352.912 34.1164C350.936 34.1164 349.164 34.5591 347.597 35.4443C346.03 36.3296 344.803 37.5553 343.918 39.1216C343.1 40.6878 342.691 42.5604 342.691 44.7395V77.3238H327.36Z" fill="#00D0DD"/>
<path d="M415.937 78.5495C410.35 78.5495 405.307 77.2897 400.81 74.7702C396.381 72.1825 392.838 68.6755 390.18 64.2492C387.591 59.8229 386.296 54.8519 386.296 49.3361C386.296 43.8202 387.591 38.8832 390.18 34.525C392.77 30.0987 396.313 26.6258 400.81 24.1062C405.307 21.5867 410.35 20.3269 415.937 20.3269C420.093 20.3269 423.943 21.0419 427.486 22.4719C431.03 23.9019 434.062 25.9108 436.583 28.4985C439.104 31.018 440.91 34.0143 442 37.4872L428.713 43.2074C427.759 40.4154 426.124 38.2022 423.807 36.5679C421.558 34.9336 418.935 34.1164 415.937 34.1164C413.279 34.1164 410.895 34.7634 408.782 36.0572C406.738 37.351 405.103 39.1556 403.876 41.4709C402.718 43.7862 402.139 46.4419 402.139 49.4382C402.139 52.4345 402.718 55.0902 403.876 57.4055C405.103 59.7208 406.738 61.5254 408.782 62.8192C410.895 64.113 413.279 64.76 415.937 64.76C419.003 64.76 421.661 63.9428 423.909 62.3085C426.158 60.6742 427.759 58.461 428.713 55.669L442 61.4913C440.978 64.76 439.206 67.6881 436.685 70.2758C434.164 72.8635 431.132 74.9064 427.589 76.4045C424.045 77.8345 420.161 78.5495 415.937 78.5495Z" fill="#00D0DD"/>
<path d="M14.9995 36.8987C12.2612 36.8987 9.84585 36.1531 7.75361 34.6619C5.69213 33.1707 4.0768 31.0738 2.9076 28.371C1.73841 25.6683 1.15381 22.5306 1.15381 18.958C1.15381 15.3544 1.72302 12.2167 2.86145 9.54503C4.03064 6.87336 5.64598 4.79193 7.70745 3.30076C9.7997 1.80959 12.215 1.06401 14.9534 1.06401C17.7533 1.06401 20.184 1.80959 22.2455 3.30076C24.3377 4.79193 25.953 6.88889 27.0915 9.59163C28.2607 12.2633 28.8453 15.3854 28.8453 18.958C28.8453 22.5306 28.2607 25.6683 27.0915 28.371C25.953 31.0427 24.3377 33.1397 22.2455 34.6619C20.184 36.1531 17.7687 36.8987 14.9995 36.8987ZM15.0457 30.3748C16.461 30.3748 17.661 29.9243 18.6456 29.0234C19.6302 28.1225 20.384 26.8177 20.907 25.1091C21.4301 23.4005 21.6916 21.3501 21.6916 18.958C21.6916 16.566 21.4301 14.5311 20.907 12.8536C20.384 11.1449 19.6148 9.84016 18.5994 8.93925C17.6148 8.03833 16.3995 7.58787 14.9534 7.58787C13.538 7.58787 12.3381 8.03833 11.3535 8.93925C10.3689 9.84016 9.61508 11.1449 9.09202 12.8536C8.56896 14.5311 8.30743 16.566 8.30743 18.958C8.30743 21.319 8.56896 23.3539 9.09202 25.0625C9.61508 26.7711 10.3689 28.0914 11.3535 29.0234C12.3688 29.9243 13.5996 30.3748 15.0457 30.3748Z" fill="#00D0DD"/>
<path d="M39.0078 36.3395V7.72767H32.3157V1.6232H46.1614V36.3395H39.0078Z" fill="#00D0DD"/>
<path d="M6.6921 77.1136V48.5018H0V42.3973H13.8457V77.1136H6.6921Z" fill="#00D0DD"/>
<path d="M34.0644 77.6728C31.3261 77.6728 28.9108 76.9272 26.8185 75.436C24.757 73.9449 23.1417 71.8479 21.9725 69.1452C20.8033 66.4424 20.2187 63.3048 20.2187 59.7322C20.2187 56.1285 20.7879 52.9908 21.9264 50.3192C23.0956 47.6475 24.7109 45.5661 26.7724 44.0749C28.8646 42.5837 31.2799 41.8381 34.0183 41.8381C36.8182 41.8381 39.2489 42.5837 41.3104 44.0749C43.4026 45.5661 45.018 47.663 46.1564 50.3658C47.3256 53.0374 47.9102 56.1596 47.9102 59.7322C47.9102 63.3048 47.3256 66.4424 46.1564 69.1452C45.018 71.8169 43.4026 73.9138 41.3104 75.436C39.2489 76.9272 36.8336 77.6728 34.0644 77.6728ZM34.1106 71.1489C35.5259 71.1489 36.7259 70.6985 37.7105 69.7976C38.6951 68.8966 39.4489 67.5919 39.9719 65.8832C40.495 64.1746 40.7565 62.1243 40.7565 59.7322C40.7565 57.3401 40.495 55.3053 39.9719 53.6277C39.4489 51.9191 38.6797 50.6143 37.6643 49.7134C36.6797 48.8125 35.4644 48.362 34.0183 48.362C32.603 48.362 31.403 48.8125 30.4184 49.7134C29.4338 50.6143 28.68 51.9191 28.1569 53.6277C27.6339 55.3053 27.3723 57.3401 27.3723 59.7322C27.3723 62.0932 27.6339 64.128 28.1569 65.8366C28.68 67.5453 29.4338 68.8656 30.4184 69.7976C31.4338 70.6985 32.6645 71.1489 34.1106 71.1489Z" fill="#00D0DD"/>
</svg>
