<svg xmlns="http://www.w3.org/2000/svg" width="330" height="75" viewBox="0 0 330 75" fill="none">
  <path d="M45.3087 57.9929V0.919303H69.3462C73.2634 0.919303 76.621 1.58325 79.419 2.91113C82.217 4.23902 84.3537 6.15424 85.829 8.65679C87.3043 11.1083 88.042 14.096 88.042 17.62C88.042 20.1226 87.3552 22.523 85.9816 24.8212C84.608 27.0684 82.3442 28.9581 79.1901 30.4903V24.668C82.1916 25.8427 84.5063 27.2472 86.1342 28.8815C87.7622 30.5158 88.8814 32.3034 89.4918 34.2441C90.1023 36.1338 90.4076 38.1256 90.4076 40.2196C90.4076 45.8376 88.5507 50.2043 84.837 53.3197C81.1233 56.4351 75.9597 57.9929 69.3462 57.9929H45.3087ZM57.1367 47.6507H70.7197C73.1108 47.6507 75.0185 46.9612 76.4429 45.5822C77.8674 44.2033 78.5796 42.4157 78.5796 40.2196C78.5796 37.9724 77.8674 36.1593 76.4429 34.7804C75.0185 33.4014 73.1108 32.7119 70.7197 32.7119H57.1367V47.6507ZM57.1367 22.3698H70.1856C72.017 22.3698 73.4669 21.859 74.5352 20.8376C75.6544 19.7651 76.214 18.3606 76.214 16.6241C76.214 14.8876 75.6544 13.5087 74.5352 12.4872C73.4669 11.4147 72.017 10.8784 70.1856 10.8784H57.1367V22.3698Z" fill="#C0FBFF"/>
  <path d="M97.1556 57.9929V16.1645H108.602V57.9929H97.1556ZM97.1556 12.4106V0.919303H108.602V12.4106H97.1556Z" fill="#C0FBFF"/>
  <path d="M137.048 58.4525C132.011 58.4525 128.094 57.0991 125.296 54.3922C122.549 51.6343 121.175 47.8039 121.175 42.9009V26.1236H114.155V16.1645H114.536C116.673 16.1645 118.301 15.6282 119.42 14.5557C120.59 13.4831 121.175 11.8744 121.175 9.72931V6.66497H132.622V16.1645H142.389V26.1236H132.622V42.1348C132.622 43.5649 132.876 44.7651 133.385 45.7354C133.893 46.6547 134.682 47.3442 135.75 47.8039C136.819 48.2635 138.141 48.4934 139.718 48.4934C140.074 48.4934 140.481 48.4678 140.939 48.4168C141.397 48.3657 141.88 48.3146 142.389 48.2635V57.9929C141.626 58.095 140.761 58.1971 139.795 58.2993C138.828 58.4014 137.912 58.4525 137.048 58.4525Z" fill="#C0FBFF"/>
  <path d="M170.616 58.9122C167.055 58.9122 163.697 58.2737 160.543 56.9969C157.44 55.669 154.744 53.8049 152.454 51.4045C150.216 49.0041 148.537 46.1696 147.418 42.9009L157.109 38.5342C158.534 41.6496 160.492 44.1011 162.985 45.8887C165.529 47.6762 168.327 48.57 171.379 48.57C173.007 48.57 174.406 48.3146 175.576 47.8039C176.746 47.2932 177.662 46.6037 178.323 45.7354C178.984 44.8161 179.315 43.7436 179.315 42.5179C179.315 41.19 178.908 40.0664 178.094 39.1471C177.28 38.1767 176.008 37.4106 174.279 36.8488L163.138 33.1716C158.61 31.6905 155.201 29.5965 152.912 26.8897C150.623 24.1318 149.478 20.8376 149.478 17.0072C149.478 13.6364 150.292 10.6742 151.92 8.12053C153.599 5.5669 155.914 3.57508 158.864 2.14505C161.866 0.715015 165.3 0 169.166 0C172.574 0 175.729 0.587334 178.628 1.762C181.528 2.93667 184.021 4.59653 186.107 6.74157C188.243 8.88662 189.846 11.4658 190.914 14.4791L181.299 18.8458C180.231 16.19 178.628 14.1216 176.492 12.6405C174.355 11.1083 171.913 10.3422 169.166 10.3422C167.589 10.3422 166.19 10.5975 164.969 11.1083C163.748 11.619 162.807 12.3595 162.146 13.3299C161.484 14.2492 161.154 15.3218 161.154 16.5475C161.154 17.8754 161.586 19.0501 162.451 20.0715C163.316 21.0419 164.613 21.808 166.343 22.3698L177.255 25.8938C181.833 27.3749 185.242 29.4433 187.48 32.0991C189.77 34.7549 190.914 37.998 190.914 41.8284C190.914 45.1481 190.049 48.1103 188.32 50.715C186.59 53.2686 184.199 55.286 181.147 56.7671C178.145 58.1971 174.635 58.9122 170.616 58.9122Z" fill="#C0FBFF"/>
  <path d="M204.99 75C203.769 75 202.574 74.8979 201.404 74.6936C200.285 74.4893 199.293 74.1573 198.428 73.6977V64.2748C199.14 64.4791 199.979 64.6578 200.946 64.811C201.912 64.9642 202.803 65.0409 203.617 65.0409C205.855 65.0409 207.458 64.5046 208.424 63.4321C209.391 62.3596 210.179 61.1338 210.79 59.7549L213.613 53.2431L213.461 62.8192L195.146 16.1645H207.432L219.565 49.3361H214.987L227.12 16.1645H239.406L221.549 61.8999C220.43 64.811 219.057 67.237 217.429 69.1777C215.801 71.1185 213.944 72.5741 211.858 73.5444C209.823 74.5148 207.534 75 204.99 75Z" fill="#C0FBFF"/>
  <path d="M244.409 57.9929V16.1645H255.092V24.4382L254.482 22.5996C255.448 20.097 257 18.2584 259.137 17.0838C261.324 15.858 263.868 15.2451 266.768 15.2451C269.922 15.2451 272.669 15.9091 275.009 17.237C277.4 18.5649 279.257 20.429 280.58 22.8294C281.902 25.1788 282.564 27.9367 282.564 31.1032V57.9929H271.117V33.5546C271.117 31.9203 270.786 30.5158 270.125 29.3412C269.515 28.1665 268.624 27.2472 267.454 26.5832C266.335 25.9193 265.012 25.5873 263.486 25.5873C262.011 25.5873 260.688 25.9193 259.518 26.5832C258.348 27.2472 257.432 28.1665 256.771 29.3412C256.161 30.5158 255.855 31.9203 255.855 33.5546V57.9929H244.409Z" fill="#C0FBFF"/>
  <path d="M310.541 58.9122C306.37 58.9122 302.605 57.9673 299.247 56.0776C295.941 54.1369 293.295 51.5066 291.311 48.1869C289.378 44.8672 288.411 41.1389 288.411 37.002C288.411 32.8652 289.378 29.1624 291.311 25.8938C293.244 22.5741 295.89 19.9694 299.247 18.0797C302.605 16.19 306.37 15.2451 310.541 15.2451C313.644 15.2451 316.519 15.7814 319.164 16.8539C321.809 17.9265 324.073 19.4331 325.956 21.3738C327.838 23.2635 329.186 25.5107 330 28.1154L320.08 32.4055C319.368 30.3115 318.147 28.6517 316.417 27.4259C314.738 26.2002 312.78 25.5873 310.541 25.5873C308.557 25.5873 306.776 26.0725 305.199 27.0429C303.673 28.0133 302.452 29.3667 301.537 31.1032C300.672 32.8396 300.239 34.8315 300.239 37.0787C300.239 39.3258 300.672 41.3177 301.537 43.0541C302.452 44.7906 303.673 46.144 305.199 47.1144C306.776 48.0848 308.557 48.57 310.541 48.57C312.83 48.57 314.814 47.9571 316.493 46.7314C318.172 45.5056 319.368 43.8458 320.08 41.7518L330 46.1185C329.237 48.57 327.914 50.7661 326.032 52.7068C324.15 54.6476 321.886 56.1798 319.24 57.3034C316.595 58.3759 313.695 58.9122 310.541 58.9122Z" fill="#C0FBFF"/>
  <path d="M11.1987 27.674C9.15426 27.674 7.35097 27.1148 5.78889 25.9964C4.24978 24.878 3.04376 23.3053 2.17083 21.2783C1.29791 19.2512 0.861442 16.898 0.861442 14.2185C0.861442 11.5158 1.28642 9.16253 2.13638 7.15877C3.0093 5.15502 4.21532 3.59395 5.75443 2.47557C7.31651 1.3572 9.1198 0.798008 11.1643 0.798008C13.2547 0.798008 15.0695 1.3572 16.6086 2.47557C18.1707 3.59395 19.3767 5.16667 20.2267 7.19372C21.0996 9.19748 21.5361 11.5391 21.5361 14.2185C21.5361 16.898 21.0996 19.2512 20.2267 21.2783C19.3767 23.282 18.1707 24.8547 16.6086 25.9964C15.0695 27.1148 13.2662 27.674 11.1987 27.674ZM11.2332 22.7811C12.2899 22.7811 13.1858 22.4432 13.9209 21.7676C14.656 21.0919 15.2188 20.1133 15.6093 18.8318C15.9999 17.5504 16.1951 16.0126 16.1951 14.2185C16.1951 12.4245 15.9999 10.8983 15.6093 9.64017C15.2188 8.3587 14.6445 7.38012 13.8864 6.70443C13.1513 6.02875 12.244 5.6909 11.1643 5.6909C10.1076 5.6909 9.21169 6.02875 8.47659 6.70443C7.74149 7.38012 7.17868 8.3587 6.78816 9.64017C6.39764 10.8983 6.20238 12.4245 6.20238 14.2185C6.20238 15.9893 6.39764 17.5154 6.78816 18.7969C7.17868 20.0784 7.74149 21.0686 8.47659 21.7676C9.23466 22.4432 10.1535 22.7811 11.2332 22.7811Z" fill="#C0FBFF"/>
  <path d="M29.1235 27.2546V5.79575H24.1271V1.2174H34.4644V27.2546H29.1235Z" fill="#C0FBFF"/>
  <path d="M4.99636 57.8352V36.3764H0V31.798H10.3373V57.8352H4.99636Z" fill="#C0FBFF"/>
  <path d="M25.4327 58.2546C23.3882 58.2546 21.585 57.6954 20.0229 56.577C18.4838 55.4587 17.2777 53.8859 16.4048 51.8589C15.5319 49.8318 15.0954 47.4786 15.0954 44.7991C15.0954 42.0964 15.5204 39.7431 16.3704 37.7394C17.2433 35.7356 18.4493 34.1746 19.9884 33.0562C21.5505 31.9378 23.3538 31.3786 25.3983 31.3786C27.4887 31.3786 29.3035 31.9378 30.8426 33.0562C32.4047 34.1746 33.6107 35.7473 34.4606 37.7743C35.3336 39.7781 35.77 42.1197 35.77 44.7991C35.77 47.4786 35.3336 49.8318 34.4606 51.8589C33.6107 53.8626 32.4047 55.4354 30.8426 56.577C29.3035 57.6954 27.5002 58.2546 25.4327 58.2546ZM25.4672 53.3617C26.5239 53.3617 27.4198 53.0239 28.1549 52.3482C28.89 51.6725 29.4528 50.6939 29.8433 49.4124C30.2338 48.131 30.4291 46.5932 30.4291 44.7991C30.4291 43.0051 30.2338 41.479 29.8433 40.2208C29.4528 38.9393 28.8785 37.9607 28.1204 37.285C27.3853 36.6094 26.4779 36.2715 25.3983 36.2715C24.3416 36.2715 23.4457 36.6094 22.7106 37.285C21.9755 37.9607 21.4127 38.9393 21.0221 40.2208C20.6316 41.479 20.4364 43.0051 20.4364 44.7991C20.4364 46.5699 20.6316 48.096 21.0221 49.3775C21.4127 50.659 21.9755 51.6492 22.7106 52.3482C23.4686 53.0239 24.3875 53.3617 25.4672 53.3617Z" fill="#C0FBFF"/>
</svg>